<?xml version="1.0" standalone="no"?>
<!DOCTYPE svg PUBLIC "-//W3C//DTD SVG 1.1//EN" "http://www.w3.org/Graphics/SVG/1.1/DTD/svg11.dtd" >
<!--
2013-9-30: Created.
-->
<svg>
<metadata>
Created by iconfont
</metadata>
<defs>

<font id="iconfont" horiz-adv-x="1024" >
  <font-face
    font-family="iconfont"
    font-weight="500"
    font-stretch="normal"
    units-per-em="1024"
    ascent="896"
    descent="-128"
  />
    <missing-glyph />
    
    <glyph glyph-name="dianpu" unicode="&#58979;" d="M864.7168 278.666667c-9.437867 0-17.066667-7.6288-17.066667-17.066667l0-304.708267-102.4 0 0 290.133333c0 9.437867-7.6288 17.066667-17.066667 17.066667l-238.933333 0c-9.4208 0-17.066667-7.6288-17.066667-17.066667l0-290.133333-273.066667 0L199.1168 261.6c0 9.437867-7.645867 17.066667-17.066667 17.066667s-17.066667-7.6288-17.066667-17.066667l0-321.774933c0-9.437867 7.645867-17.066667 17.066667-17.066667l307.2 0c9.4208 0 17.066667 7.6288 17.066667 17.066667l0 290.133333 204.8 0 0-290.133333c0-9.437867 7.6288-17.066667 17.066667-17.066667l136.533333 0c9.437867 0 17.066667 7.6288 17.066667 17.066667L881.783467 261.6C881.783467 271.037867 874.154667 278.666667 864.7168 278.666667zM949.981867 467.6288c0 0.426667 0.068267 0.8192 0.068267 1.245867 0 0.989867-0.392533 1.826133-0.5632 2.7648-0.1536 0.887467-0.034133 1.757867-0.324267 2.628267l-68.266667 204.8c-0.068267 0.2048-0.238933 0.341333-0.324267 0.546133-0.443733 1.1776-1.160533 2.167467-1.8432 3.208533-0.546133 0.836267-0.989867 1.7408-1.655467 2.4576-0.7168 0.768-1.621333 1.28-2.474667 1.911467-0.9216 0.682667-1.774933 1.416533-2.798933 1.8944-0.853333 0.392533-1.792 0.512-2.7136 0.750933-1.245867 0.341333-2.440533 0.7168-3.7376 0.750933-0.221867 0-0.4096 0.136533-0.631467 0.136533l-682.666667 0c-0.221867 0-0.4096-0.119467-0.631467-0.136533-1.297067-0.0512-2.5088-0.4096-3.7376-0.750933-0.9216-0.256-1.860267-0.3584-2.7136-0.750933-1.058133-0.494933-1.928533-1.245867-2.8672-1.928533-0.8192-0.6144-1.706667-1.109333-2.4064-1.860267C168.977067 684.5632 168.516267 683.624533 167.936 682.737067c-0.648533-1.006933-1.3312-1.9456-1.757867-3.072-0.085333-0.221867-0.256-0.3584-0.341333-0.580267l-68.266667-204.8c-0.3072-0.904533-0.187733-1.826133-0.341333-2.747733-0.1536-0.904533-0.529067-1.706667-0.529067-2.6624 0-0.4096 0.0512-0.802133 0.068267-1.194667 0-0.085333 0-0.1536 0.017067-0.221867 0.785067-84.036267 69.3248-152.183467 153.531733-152.183467 59.4432 0 111.018667 34.013867 136.533333 83.5584 25.514667-49.527467 77.090133-83.5584 136.533333-83.5584s111.018667 34.013867 136.533333 83.5584c25.514667-49.527467 77.073067-83.5584 136.533333-83.5584 84.224 0 152.7808 68.164267 153.531733 152.2176C949.981867 467.543467 949.981867 467.5776 949.981867 467.6288zM796.450133 349.408c-65.860267 0-119.466667 53.589333-119.466667 119.466667 0 9.4208-7.6288 17.066667-17.066667 17.066667s-17.066667-7.645867-17.066667-17.066667c0-65.877333-53.6064-119.466667-119.466667-119.466667s-119.466667 53.589333-119.466667 119.466667c0 9.4208-7.645867 17.066667-17.066667 17.066667s-17.066667-7.645867-17.066667-17.066667c0-65.877333-53.589333-119.466667-119.466667-119.466667-65.058133 0-118.050133 52.309333-119.3472 117.060267l63.3856 190.139733 658.0736 0 63.368533-190.122667C914.500267 401.717333 861.508267 349.408 796.450133 349.408zM796.450133 588.341333l-546.133333 0c-9.4208 0-17.066667-7.645867-17.066667-17.066667s7.645867-17.066667 17.066667-17.066667l546.133333 0c9.437867 0 17.066667 7.645867 17.066667 17.066667S805.888 588.341333 796.450133 588.341333z"  horiz-adv-x="1024" />

    
    <glyph glyph-name="dizhi" unicode="&#58913;" d="M1024 33.125209C1024-72.656372 766.428279-128 512-128 257.571721-128 0-72.656372 0 33.125209 0 126.999814 198.394047 166.12614 283.719442 178.604651 296.364651 180.390698 308.152558 171.460465 309.962419 158.553302 311.796093 145.622326 302.98493 133.643907 290.292093 131.786419 112.616186 105.829209 46.413395 57.486884 46.413395 33.125209 46.413395-13.288186 227.780465-80.729302 512-80.729302 796.219535-80.729302 977.586605-13.288186 977.586605 33.125209 977.586605 57.677395 910.740837 106.281674 731.350326 132.119814 718.657488 133.953488 709.822512 145.931907 711.608558 158.83907 713.418419 171.770047 725.206326 180.676465 737.827721 178.938047 823.867535 166.530977 1024 127.523721 1024 33.125209L1024 33.125209ZM413.81507 594.753488C413.81507 649.906605 457.84707 694.772093 511.976186 694.772093 566.129116 694.772093 610.18493 649.906605 610.18493 594.753488 610.18493 539.600372 566.129116 494.71107 511.976186 494.71107 457.84707 494.71107 413.81507 539.600372 413.81507 594.753488L413.81507 594.753488ZM656.598326 594.753488C656.598326 675.982884 591.729116 742.066605 511.976186 742.066605 432.270884 742.066605 367.425488 675.982884 367.425488 594.753488 367.425488 513.524093 432.270884 447.440372 511.976186 447.440372 591.729116 447.440372 656.598326 513.524093 656.598326 594.753488L656.598326 594.753488ZM512 848.729302C654.764651 848.729302 770.929116 730.373953 770.929116 584.894512 770.929116 383.333209 570.391814 156.862512 511.809488 95.017674 453.060465 155.743256 253.070884 377.713116 253.070884 584.894512 253.070884 730.373953 369.211535 848.729302 512 848.729302L512 848.729302ZM496.139907 44.365395 512.190512 29.100651 528.050605 44.555907C539.862326 56.08186 817.342512 329.799442 817.342512 584.894512 817.342512 756.450233 680.364651 896 512 896 343.635349 896 206.657488 756.450233 206.657488 584.894512 206.657488 322.917209 484.328186 55.605581 496.139907 44.341581L496.139907 44.365395Z"  horiz-adv-x="1024" />

    
    <glyph glyph-name="fanhui" unicode="&#58907;" d="M570.382231 154.424041c-5.108445 0-10.21689 1.946074-14.109039 5.838223L347.678347 368.857109c-7.784297 7.784297-7.784297 20.433781 0 28.218078l207.986697 207.986697c7.784297 7.784297 20.433781 7.784297 28.218078 0 7.784297-7.784297 7.784297-20.433781 0-28.218078L390.005464 382.966148l194.485806-194.485806c7.784297-7.784297 7.784297-20.433781 0-28.218078C580.599121 156.370115 575.490676 154.424041 570.382231 154.424041L570.382231 154.424041zM570.382231 154.424041M512-22.668726c-54.733341 0-107.763867 10.703409-157.753652 31.866968-48.28697 20.433781-91.587124 49.624896-128.805796 86.843568S159.030764 176.682266 138.596983 224.847607C117.433424 274.837392 106.730015 327.989547 106.730015 382.601259c0 54.733341 10.703409 107.763867 31.866968 157.753652C159.030764 588.641881 188.221879 631.942036 225.440551 669.160708c37.218672 37.218672 80.518826 66.409787 128.805796 86.843568 49.989785 21.163559 103.020311 31.866968 157.753652 31.866968 10.946668 0 19.947262-8.878964 19.947262-19.947262 0-10.946668-8.878964-19.947262-19.947262-19.947262l0 0c-97.546977 0-189.377361-37.94845-258.341371-107.03409-68.96401-68.96401-107.03409-160.794394-107.03409-258.341371 0-97.546977 38.07008-189.377361 107.03409-258.341371 68.96401-68.96401 160.794394-107.03409 258.341371-107.03409 97.546977 0 189.377361 38.07008 258.341371 107.03409 68.96401 69.08564 107.03409 160.794394 107.03409 258.341371 0 66.288158-18.001188 131.238389-51.935859 187.796175C792.356337 625.374035 745.285663 670.863523 689.336026 702.000713c-9.608742 5.351704-13.014372 17.514669-7.784297 27.123411 5.351704 9.608742 17.514669 13.014372 27.123411 7.662668 62.15275-34.54282 114.331868-85.019123 150.942392-145.833947 37.705191-62.760898 57.652453-134.765649 57.652453-208.351586 0-54.733341-10.703409-107.763867-31.866968-157.753652-20.433781-48.28697-49.624896-91.587124-86.843568-128.805796-37.218672-37.218672-80.518826-66.409787-128.805796-86.843568C619.763867-11.843687 566.733341-22.668726 512-22.668726L512-22.668726zM512-22.668726"  horiz-adv-x="1024" />

    
    <glyph glyph-name="xiugai" unicode="&#59156;" d="M358.656 295.168l59.392-59.392 237.568 237.568L596.288 532.736 358.656 295.168zM512 832C264.576 832 64 631.424 64 384s200.576-448 448-448c247.424 0 448 200.576 448 448S759.424 832 512 832zM269.696 146.688l29.44 128.96 99.584-99.584L269.696 146.688zM724.992 503.04l-306.88-306.88L319.104 295.168l306.88 306.88c27.328 27.328 71.68 27.328 99.008 0S752.32 530.368 724.992 503.04zM645.76 582.208 616.064 552.512l59.392-59.392 29.696 29.696c16.384 16.384 16.384 43.008 0 59.392C688.768 598.656 662.144 598.656 645.76 582.208z"  horiz-adv-x="1024" />

    
    <glyph glyph-name="sousuo" unicode="&#59027;" d="M689.979042 701.702805C553.099558 838.581266 331.17412 838.581266 194.29566 701.701782c-136.87846-136.87846-136.87846-358.801852 0-495.681336 124.758422-124.757398 320.154647-135.782499 457.426057-33.120328l203.079208-203.078185c8.243755-8.243755 21.732977-8.243755 29.976732 0l41.400922 41.400922c8.244778 8.244778 8.244778 21.731954 0 29.976732L723.100394 244.278795C825.761542 381.548158 814.737464 576.944384 689.979042 701.702805zM640.41009 255.589398c-109.502973-109.502973-287.042505-109.502973-396.546501 0.001023-109.502973 109.50195-109.502973 287.041482 0 396.544455 109.502973 109.502973 287.044552 109.503996 396.547525 0.001023S749.914086 365.091348 640.41009 255.589398z"  horiz-adv-x="1024" />

    
    <glyph glyph-name="mima" unicode="&#58882;" d="M512 896C229.233601 896 0 666.78305 0 384c0-282.771949 229.228051-512 512-512s512 229.228051 512 512C1024 666.78305 794.771949 896 512 896z m201.149002-713.149002c0-40.212039-32.924475-73.130964-73.147614-73.130964H383.998612c-40.22869 0-73.147615 32.918924-73.147614 73.130964V438.859323h36.576582v54.859324c0 90.891975 73.674895 164.57242 164.57242 164.572419 90.886424 0 164.566869-73.680445 164.566869-164.572419h-36.571032c0 70.577818-57.42912 128.001388-128.006938 128.001387S384.004163 564.296465 384.004163 493.718647v-54.859324h329.144839v-256.008325z"  horiz-adv-x="1024" />

    
    <glyph glyph-name="lijigoumai" unicode="&#59485;" d="M969.386667 165.546667h-191.146667c-10.24 0-17.066667 6.826667-17.066667 17.066666s6.826667 17.066667 17.066667 17.066667h191.146667c10.24 0 17.066667 6.826667 17.066666 17.066667V776.533333c0 10.24-6.826667 17.066667-17.066666 17.066667H54.613333c-10.24 0-17.066667-6.826667-17.066666-17.066667v-559.786666c0-10.24 6.826667-17.066667 17.066666-17.066667h300.373334c10.24 0 17.066667-6.826667 17.066666-17.066667s-6.826667-17.066667-17.066666-17.066666H54.613333c-30.72 0-54.613333 23.893333-54.613333 54.613333V779.946667c0 30.72 23.893333 54.613333 54.613333 54.613333h911.36c30.72 0 54.613333-23.893333 54.613334-54.613333v-559.786667c3.413333-30.72-20.48-54.613333-51.2-54.613333zM279.893333 643.413333c51.2 0 81.92-23.893333 81.92-61.44 0-27.306667-17.066667-47.786667-44.373333-54.613333 34.133333-6.826667 54.613333-30.72 54.613333-61.44 0-40.96-34.133333-68.266667-88.746666-68.266667H170.666667V643.413333h109.226666z m-68.266666-102.4h64.853333c27.306667 0 40.96 13.653333 40.96 34.133334s-17.066667 30.72-40.96 30.72H211.626667v-64.853334z m0-109.226666h64.853333c34.133333 0 51.2 13.653333 51.2 37.546666 0 20.48-20.48 34.133333-51.2 34.133334H211.626667v-71.68zM631.466667 496.64c0-64.853333-40.96-105.813333-109.226667-105.813333s-109.226667 40.96-109.226667 105.813333V640h40.96v-143.36c0-40.96 27.306667-68.266667 64.853334-68.266667 40.96 0 64.853333 23.893333 64.853333 68.266667V640h40.96v-143.36zM791.893333 394.24H750.933333v81.92l-92.16 167.253333h40.96l71.68-119.466666 68.266667 119.466666h40.96l-92.16-163.84v-85.333333zM617.813333-66.56c-51.2 0-119.466667 23.893333-177.493333 47.786667-34.133333 13.653333-64.853333 23.893333-85.333333 27.306666-30.72 6.826667-51.2 27.306667-51.2 54.613334 0 17.066667 6.826667 30.72 17.066666 40.96 10.24 10.24 23.893333 17.066667 40.96 17.066666h40.96l-150.186666 150.186667c-23.893333 23.893333-23.893333 58.026667-3.413334 81.92 20.48 20.48 58.026667 20.48 81.92 0l78.506667-78.506667c3.413333 6.826667 6.826667 10.24 10.24 17.066667 13.653333 13.653333 37.546667 20.48 58.026667 13.653333 3.413333 6.826667 6.826667 13.653333 13.653333 20.48 17.066667 17.066667 37.546667 20.48 58.026667 13.653334 3.413333 6.826667 6.826667 13.653333 13.653333 20.48 20.48 20.48 58.026667 20.48 81.92-3.413334l105.813333-105.813333c68.266667-68.266667 40.96-163.84 17.066667-204.8l-3.413333-3.413333-81.92-88.746667c-17.066667-13.653333-37.546667-20.48-64.853334-20.48z m-259.413333 150.186667c-6.826667 0-10.24-3.413333-13.653333-6.826667-3.413333-3.413333-3.413333-6.826667-3.413334-13.653333s0-13.653333 20.48-20.48c23.893333-3.413333 54.613333-17.066667 88.746667-30.72 54.613333-20.48 119.466667-44.373333 163.84-44.373334 17.066667 0 30.72 3.413333 37.546667 10.24l78.506666 78.506667c6.826667 13.653333 47.786667 98.986667-13.653333 160.426667l-105.813333 105.813333c-3.413333 3.413333-10.24 6.826667-17.066667 6.826667-3.413333 0-6.826667 0-13.653333-6.826667s-6.826667-20.48 0-27.306667c6.826667-6.826667 6.826667-20.48 0-27.306666-6.826667-6.826667-20.48-6.826667-27.306667 0l-20.48 20.48c-3.413333 3.413333-10.24 6.826667-17.066667 6.826666-3.413333 0-6.826667 0-13.653333-6.826666s-6.826667-20.48 0-27.306667c0-3.413333 3.413333-3.413333 3.413333-6.826667s-3.413333-6.826667-6.826666-10.24l-3.413334-3.413333s-3.413333-3.413333-6.826666-3.413333c-6.826667 0-13.653333 0-17.066667 3.413333l-17.066667 17.066667c-3.413333 3.413333-10.24 6.826667-17.066666 6.826666-3.413333 0-6.826667 0-13.653334-6.826666-3.413333-3.413333-6.826667-6.826667-6.826666-13.653334s3.413333-10.24 6.826666-13.653333c6.826667-6.826667 6.826667-17.066667 0-27.306667-6.826667-6.826667-17.066667-6.826667-27.306666 0l-116.053334 116.053334c-6.826667 6.826667-20.48 10.24-27.306666 0-10.24-10.24-6.826667-20.48 3.413333-27.306667l184.32-184.32c6.826667-6.826667 6.826667-13.653333 3.413333-20.48-3.413333-6.826667-10.24-10.24-17.066666-10.24l-68.266667 6.826667z"  horiz-adv-x="1024" />

    
    <glyph glyph-name="fanhuidingbu" unicode="&#58901;" d="M512-128C229.241263-128 0 101.241263 0 384S229.241263 896 512 896s512-229.241263 512-512-229.241263-512-512-512z m11.237053 727.578947L296.421053 373.301895h167.82821v-228.675369h107.924211v228.675369h171.681684L523.237053 599.578947z"  horiz-adv-x="1024" />

    
    <glyph glyph-name="quanxian" unicode="&#58675;" d="M618.616683 463.853211c42.636556 18.066337 88.163726 27.460833 134.41355 27.460833h13.730416c21.679605 54.921665 27.460833 120.683133 16.621031 183.553987C757.366154 820.121383 620.06199 917.679605 476.253945 891.664079 332.4459 866.371207 210.317459 754.359915 236.332985 609.106563c5.058574-31.0741 20.956951-80.214538 38.300635-115.624559L13.033056 115.534227c-9.394495-13.730416-15.175723-39.023289-12.28511-55.644319l11.562456-64.316161c-10.839802 62.1482 2.890614-22.402258 11.562456-22.402258l85.995766-1.445307c16.62103 2.890614 37.577982 17.343684 46.249823 31.0741L260.18055 164.674665l0.722654 0.722653 90.331687-7.226535 120.683133 189.335216h1.445307c10.839802 14.45307 22.402258 28.90614 36.132675 41.913902 31.0741 32.519407 67.929428 57.089626 109.120677 74.43331z m-549.216655-388.064926l-13.007763-5.058574 1.445307 13.730416L308.598335 447.954834l15.175723-13.730416-254.37403-358.436133z m380.838391 669.177135c39.745942 57.089626 117.792519 71.542696 174.159492 31.0741 56.366972-40.468596 70.097389-118.515173 31.0741-176.327452-39.745942-57.089626-80.214538-16.62103-136.58151 23.124912-56.366972 41.191249-107.675371 65.038814-68.652082 122.12844zM749.416965 421.216655c-151.757234 0-274.608327-122.851094-274.608327-274.608328s122.851094-274.608327 274.608327-274.608327 274.608327 122.851094 274.608328 274.608327-122.851094 274.608327-274.608328 274.608328z m158.983769-387.342273c0-41.191249-78.769231-50.585745-152.479887-50.585744s-153.202541 9.394495-153.202541 50.585744v11.562456c0 30.351447 54.199012 60.702893 100.448836 77.323924 3.613267 1.445307 19.511644 10.117149 10.117149 33.242061-23.124912 23.124912-40.468596 61.425547-40.468596 99.003528 0 57.089626 37.577982 87.441073 82.382498 87.441073 44.081863 0 82.382498-29.628793 82.382499-87.441073 0-36.855328-17.343684-75.155963-40.468596-98.280875-8.671842-26.738179 5.058574-33.242061 7.226535-33.24206 48.417784-15.898377 103.33945-46.249824 103.339449-77.323924l0.722654-12.28511z"  horiz-adv-x="1024" />

    
    <glyph glyph-name="baobei" unicode="&#58908;" d="M128-42.666667c0-21.333333 21.333333-42.666667 46.933333-42.666666H469.333333V341.333333H128v-384zM554.666667-85.333333h294.4c25.6 0 46.933333 21.333333 46.933333 42.666666v384h-341.333333v-426.666666zM934.4 640H89.6C64 640 42.666667 618.666667 42.666667 588.8v-157.866667c0-25.6 21.333333-46.933333 46.933333-46.933333h844.8c25.6 0 46.933333 21.333333 46.933333 51.2V588.8c0 29.866667-21.333333 51.2-46.933333 51.2zM298.666667 686.933333h145.066666L290.133333 823.466667c-12.8 17.066667-25.6 25.6-34.133333 29.866666v-123.733333c0-25.6 21.333333-42.666667 42.666667-42.666667zM533.333333 644.266667l46.933334 42.666666h-64l-34.133334-34.133333 4.266667-8.533333zM768 729.6V853.333333c-8.533333-4.266667-21.333333-12.8-34.133333-25.6l-153.6-140.8H725.333333c21.333333 0 42.666667 17.066667 42.666667 42.666667z"  horiz-adv-x="1024" />

    
    <glyph glyph-name="user" unicode="&#58884;" d="M644 553.7c0 72.8-59.2 132-132 132s-132-59.2-132-132 59.2-132 132-132 132 59.2 132 132zM512 385.7c-59.3 0-115-23.1-157-65-41.9-41.9-65-97.7-65-157 0-15.7 11-38.4 63.2-57.7 41-15.1 98.9-23.7 158.8-23.7 59.9 0 117.8 8.7 158.8 23.7 52.3 19.2 63.2 42 63.2 57.7 0 59.3-23.1 115-65 157-42 41.9-97.7 65-157 65z m13-79.7c-80 0-145-65-145-145 0-2.8-2.2-5-5-5s-5 2.2-5 5c0 85.5 69.5 155 155 155 2.8 0 5-2.2 5-5s-2.2-5-5-5zM512 867c-266.8 0-483-216.2-483-483s216.2-483 483-483 483 216.2 483 483-216.2 483-483 483z m0-820.7c-64.9 0-125.7 9.2-171.2 26-71.7 26.4-86.8 64.3-86.8 91.5 0 68.9 26.8 133.7 75.6 182.4 28.3 28.3 62.1 49.3 99 61.8-50.5 29-84.6 83.4-84.6 145.7 0 92.6 75.4 168 168 168s168-75.4 168-168c0-62.3-34.1-116.7-84.5-145.8 36.9-12.6 70.6-33.5 99-61.8 48.7-48.7 75.6-113.5 75.6-182.4-0.1-81.1-129.7-117.4-258.1-117.4z"  horiz-adv-x="1024" />

    
    <glyph glyph-name="gouwuche" unicode="&#58630;" d="M347.136 112.63999999999999q19.456 0 36.864-7.168t30.72-19.968 20.48-30.208 7.168-36.864-7.168-36.864-20.48-30.208-30.72-20.48-36.864-7.68q-20.48 0-37.376 7.68t-30.208 20.48-20.48 30.208-7.168 36.864 7.168 36.864 20.48 30.208 30.208 19.968 37.376 7.168zM773.12 110.59199999999998q19.456 0 37.376-7.168t30.72-19.968 20.48-30.208 7.68-36.864-7.68-36.864-20.48-30.208-30.72-20.48-37.376-7.68-36.864 7.68-30.208 20.48-20.48 30.208-7.68 36.864 7.68 36.864 20.48 30.208 30.208 19.968 36.864 7.168zM945.152 692.2239999999999q28.672 0 44.544-7.68t22.528-18.944 6.144-24.064-3.584-22.016-12.8-37.888-22.016-62.976-24.064-68.096-17.92-53.248q-13.312-40.96-33.792-56.832t-50.176-15.872l-34.816 0-66.56 0-87.04 0-95.232 0-253.952 0 15.36-92.16 516.096 0q49.152 0 49.152-41.984 0-20.48-9.728-35.328t-38.4-14.848l-49.152 0-95.232 0-117.76 0-119.808 0-98.304 0-56.32 0q-20.48 0-34.304 9.216t-23.04 24.064-14.848 32.256-8.704 32.768q-1.024 6.144-5.632 29.696t-11.264 58.88-14.848 78.848-16.384 87.552q-19.456 103.424-44.032 230.4l-76.8 0q-15.36 0-25.6 7.68t-16.896 18.432-9.216 23.04-2.56 22.528q0 20.48 13.824 33.792t37.376 13.312l22.528 0 20.48 0 25.6 0 34.816 0q20.48 0 32.768-6.144t19.456-15.36 10.24-19.456 5.12-17.408q2.048-8.192 4.096-23.04t4.096-30.208q3.072-18.432 6.144-38.912l700.416 0z"  horiz-adv-x="1024" />

    
    <glyph glyph-name="tuichu" unicode="&#58902;" d="M767.987 721.392c29.987-21.287 56.608-45.414 79.868-72.356 23.316-26.97 43.268-56.087 59.914-87.35 16.647-31.29 29.291-64.38 37.933-99.325s12.992-70.356 12.992-106.317c0-61.887-11.832-119.946-35.439-174.177-23.664-54.23-55.566-101.501-95.876-141.754-40.252-40.253-87.466-72.182-141.753-95.818-54.173-23.636-112.29-35.439-174.177-35.439-61.192 0-118.902 11.803-173.192 35.439-54.172 23.636-101.617 55.565-142.218 95.818-40.6 40.281-72.5 87.523-95.817 141.754-23.317 54.231-34.917 112.29-34.917 174.177 0 35.265 4.118 69.892 12.413 103.822 8.352 33.93 20.184 66.208 35.496 96.833 15.312 30.595 34.22 59.219 56.84 85.841 22.62 26.624 47.91 50.577 75.866 71.864 14.675 10.643 30.508 14.646 47.445 11.978 16.936-2.668 30.74-10.963 41.412-24.941 10.672-13.977 14.617-29.61 12.007-46.923-2.668-17.313-10.962-31.292-24.999-41.934-41.876-30.596-74.01-68.21-96.282-112.784-22.272-44.602-33.466-92.51-33.466-143.755 0-43.907 8.294-85.348 24.999-124.267 16.587-38.948 39.383-72.879 68.325-101.82 29-28.943 62.873-51.912 101.85-68.878 38.918-16.965 80.331-25.433 124.238-25.433 43.964 0 85.377 8.468 124.296 25.433s72.849 39.934 101.85 68.877c28.942 28.942 51.852 62.873 68.847 101.821 16.994 38.918 25.461 80.36 25.461 124.267 0 51.912-12.005 100.98-35.96 147.236-23.954 46.256-57.538 84.362-100.806 114.29-14.616 9.977-23.432 23.636-26.449 40.92-3.016 17.313 0.522 33.293 10.498 47.938 9.976 13.978 23.607 22.447 40.892 25.434 17.343 3.015 33.293-0.495 47.909-10.47zM511.449 353.057c-17.285 0-32.076 6.148-44.429 18.474-12.297 12.296-18.444 27.116-18.444 44.429V795.258c0 17.313 6.148 32.277 18.444 44.92 12.353 12.644 27.144 18.967 44.429 18.967 17.98 0 33.118-6.323 45.414-18.966 12.355-12.644 18.503-27.608 18.503-44.921V415.96c0-17.313-6.148-32.133-18.503-44.429-12.296-12.327-27.435-18.474-45.414-18.474z m0 0"  horiz-adv-x="1024" />

    
    <glyph glyph-name="yanzhengma" unicode="&#59809;" d="M852.2 721.2c-8.1-0.3-16.1-0.4-23.9-0.4-204.8 0-295.1 89.1-295.9 89.9L512.1 832l-20.6-21.2c-0.8-0.9-89.3-89.9-295.8-89.9-7.8 0-15.7 0.1-23.9 0.4l-28.7 0.9V318c0-105.8 37.2-260.2 358.9-378.3l10-3.7 10 3.7C843.7 57.8 880.9 212.1 880.9 318V722.1l-28.7-0.9zM480.4 213.4L295 379.3l49.2 40.3 98.6-73.4s136.1 142.2 267.5 208.6l18.8-21.3c-0.1-0.1-164.3-137.6-248.7-320.1z"  horiz-adv-x="1024" />

    
    <glyph glyph-name="gerenzhongxin" unicode="&#59350;" d="M603.22816 332.42112H420.6592c-169.64608 0-307.61984-138.10688-307.61984-307.9168v-18.26816c0-88.7808 135.77216-88.7808 307.61984-88.7808H603.2384c165.08928 0 307.65056 0 307.65056 88.7808v18.26816c0 169.7792-138.00448 307.9168-307.65056 307.9168z m-100.4032 23.5008c134.3488 0 243.64032 109.45536 243.64032 244.0192 0 134.57408-109.30176 244.03968-243.64032 244.03968-134.32832 0-243.64032-109.48608-243.64032-244.03968 0-134.53312 109.312-244.0192 243.64032-244.0192z"  horiz-adv-x="1024" />

    
    <glyph glyph-name="chakan" unicode="&#58897;" d="M709.632 343.03999999999996h-121.856c-18.432 0-32.768-14.848-32.768-32.768v-121.856c0-18.432 14.848-32.768 32.768-32.768h121.856c18.432 0 32.768 14.848 32.768 32.768v121.856c0 17.92-14.848 32.768-32.768 32.768zM436.224 614.4H314.368c-18.432 0-32.768-14.848-32.768-32.768v-121.856c0-17.92 14.848-32.768 32.768-32.768h121.856c18.432 0 32.768 14.848 32.768 32.768V581.6320000000001c0.512 17.92-14.336 32.768-32.768 32.768zM436.224 343.03999999999996H314.368c-18.432 0-32.768-14.848-32.768-32.768v-121.856c0-18.432 14.848-32.768 32.768-32.768h121.856c18.432 0 32.768 14.848 32.768 32.768v121.856c0.512 17.92-14.336 32.768-32.768 32.768zM512 886.784c-277.504 0-502.784-225.28-502.784-502.784s225.28-502.784 502.784-502.784 502.784 225.28 502.784 502.784-225.28 502.784-502.784 502.784z m-22.016-698.88c0-29.696-24.064-53.76-53.76-53.76H314.368c-29.696 0-53.76 24.064-53.76 53.76v121.856c0 29.696 24.064 53.76 53.76 53.76h121.856c29.696 0 53.76-24.064 53.76-53.76v-121.856z m0 271.872c0-29.696-24.064-53.76-53.76-53.76H314.368c-29.696 0-53.76 24.064-53.76 53.76V581.6320000000001c0 29.696 24.064 53.76 53.76 53.76h121.856c29.696 0 53.76-24.064 53.76-53.76v-121.856z m273.408-271.872c0-29.696-24.064-53.76-53.76-53.76h-121.856c-29.696 0-53.76 24.064-53.76 53.76v121.856c0 29.696 24.064 53.76 53.76 53.76h121.856c29.696 0 53.76-24.064 53.76-53.76v-121.856z m0 324.608c0-29.696-24.064-53.76-53.76-53.76h-69.12c-29.696 0-53.76 24.064-53.76 53.76V581.6320000000001c0 29.696 24.064 53.76 53.76 53.76h69.12c29.696 0 53.76-24.064 53.76-53.76v-69.12zM709.632 614.4h-69.12c-17.92 0-32.768-14.848-32.768-32.768v-69.12c0-17.92 14.848-32.768 32.768-32.768h69.12c18.432 0 32.768 14.848 32.768 32.768V581.6320000000001c0 17.92-14.848 32.768-32.768 32.768z"  horiz-adv-x="1024" />

    
    <glyph glyph-name="lijigoumai1" unicode="&#58914;" d="M511.3 830.4c-246 0-445.5-199.4-445.5-445.5s199.5-445.5 445.5-445.5 445.5 199.5 445.5 445.5S757.4 830.4 511.3 830.4z m178.8-260.9c-2.6-6.1-6.7-13.7-12.4-22.9l-90.3-148.9h39.8c29.5 0 44.2-9.6 44.2-28.8 0-19.6-14.7-29.5-44.2-29.5h-70.8v-45.1h70.8c29.5 0 44.2-9.8 44.2-29.5 0-19.2-14.7-28.8-44.2-28.8h-70.8v-25c0-42.4-14.1-63.6-42.3-63.6-28.6 0-42.9 21.2-42.9 63.6v25h-70.5c-29.7 0-44.5 9.6-44.5 28.8 0 19.6 14.8 29.5 44.5 29.5h70.5v45.1h-70.5c-29.7 0-44.5 9.8-44.5 29.5 0 19.2 14.8 28.8 44.5 28.8h39.8l-93.7 147c-7.5 11.7-12.4 20.1-14.7 25.1-2.3 5-3.4 10.5-3.4 16.6 0 10.9 3.3 19.6 9.9 26.2 6.6 6.6 15.1 9.9 25.5 9.9 10.7 0 19.3-3.2 25.9-9.7 6.6-6.5 14.3-16.9 23-31.3l101.2-158.6 90.6 149.5c3.3 5.8 6.9 12 10.7 18.3 3.8 6.4 7.4 11.8 11 16.3 3.5 4.5 8 8.2 13.3 11.1 5.3 2.9 11.6 4.4 19 4.4 10.4 0 19-3.2 25.5-9.6 6.6-6.4 9.9-14.2 9.9-23.3-0.2-7.4-1.5-14.1-4.1-20.1z"  horiz-adv-x="1024" />

    
    <glyph glyph-name="yanzhengma1" unicode="&#58890;" d="M512 858.3c-266.8 0-483-216.3-483-483s216.3-483 483-483 483 216.3 483 483-216.2 483-483 483z m173-648.4c-43.8-59.2-77-86.1-77-86.1-26.9-23.8-58-46.4-94.2-67.2l-1.6 0.1C200 236.3 290.4 552.8 290.4 552.8c126.5 1.3 192 56.8 215.1 81.9 11 9.9 19.3 0.5 19.3 0.5 22.7-24.8 88.2-81.2 215.6-82.4 0 0 59.5-178.1-55.4-342.9z"  horiz-adv-x="1024" />

    
    <glyph glyph-name="go" unicode="&#58883;" d="M481.882353-67.764706C216.847059-67.764706 0 149.082353 0 414.117647S216.847059 896 481.882353 896s481.882353-216.847059 481.882353-481.882353-216.847059-481.882353-481.882353-481.882353z m250.578823 515.614118l-168.658823 168.658823c-19.275294 19.275294-48.188235 19.275294-67.463529 0s-19.275294-48.188235 0-67.463529l86.738823-86.738824H240.941176c-24.094118 0-48.188235-24.094118-48.188235-48.188235s24.094118-48.188235 48.188235-48.188235h342.136471l-86.738823-86.738824c-19.275294-19.275294-19.275294-48.188235 0-67.463529s48.188235-19.275294 67.463529 0l168.658823 168.658823c9.637647 9.637647 14.456471 24.094118 14.456471 33.731765 0 14.456471-4.818824 24.094118-14.456471 33.731765z"  horiz-adv-x="1024" />

    
    <glyph glyph-name="xingmingyonghumingnicheng" unicode="&#58886;" d="M608.176278 389.649408a195.445801 195.445801 0 1 1-189.106372 0C292.560414 349.55285 200.911139 231.269998 200.911139 91.563329h39.086502c0 151.096377 122.522429 273.618806 273.618806 273.618806S787.235253 242.659706 787.235253 91.563329h39.086502c0 139.706668-91.649276 257.989521-218.145477 298.086079z m-250.91913 170.978528A156.359299 156.359299 0 1 0 513.616447 404.268637a156.385879 156.385879 0 0 0-156.359299 156.359299zM983.850592 582.609941A511.938819 511.938819 0 1 1 1023.96044 383.947909a508.616266 508.616266 0 0 1-40.109848 198.662032zM513.616447-73.235252C261.527778-73.235252 56.433286 131.859241 56.433286 383.947909S261.527778 841.13107 513.616447 841.13107s457.183161-205.094492 457.183161-457.183161-205.094492-457.183161-457.183161-457.183161z"  horiz-adv-x="1027" />

    
    <glyph glyph-name="yanzhengma2" unicode="&#58987;" d="M894.4 632c-1.6 27.2-22.4 51.2-48 56 0 0-100.8 16-156.8 35.2-70.4 25.6-140.8 80-140.8 80-22.4 16-54.4 14.4-75.2-1.6 0 0-49.6-49.6-140.8-78.4-84.8-33.6-153.6-38.4-153.6-38.4-25.6-3.2-48-27.2-48-52.8 0 0-3.2-136 1.6-256C132.8 163.2 385.6-48 513.6-48c126.4 0 344 147.2 377.6 422.4 8 163.2 3.2 257.6 3.2 257.6zM697.6 444.8L480 225.6c-9.6-9.6-25.6-11.2-35.2-1.6l-113.6 89.6c-20.8 16-22.4 44.8-4.8 64 17.6 19.2 49.6 22.4 70.4 4.8l52.8-41.6L630.4 512c19.2 17.6 49.6 17.6 67.2 0v1.6l1.6-1.6h-1.6c19.2-17.6 17.6-48 0-67.2z"  horiz-adv-x="1024" />

    
    <glyph glyph-name="icon-" unicode="&#58977;" d="M268.02606186-38.30899283999997a117.44211993 117.44211993 0 0 0-117.28124029 117.2812403L150.74482157 689.0277525399999A117.44211993 117.44211993 0 0 0 268.02606186 806.30899284l488.02831609 0a117.44211993 117.44211993 0 0 0 117.2812403-117.2812403l0-609.97506528a117.44211993 117.44211993 0 0 0-117.2812403-117.28124029z m0 792.97562884a65.79976308 65.79976308 0 0 1-65.71932328-65.71932326l0-609.97506528a65.79976308 65.79976308 0 0 1 65.71932328-65.71932326l488.02831609 0a65.79976308 65.79976308 0 0 1 65.71932328 65.71932326L821.77370123 689.0277525399999a65.79976308 65.79976308 0 0 1-65.71932328 65.71932326zM318.94446042 358.17882159a25.82117841 25.82117841 0 1 0 0 51.56191701l386.11107916 0a25.82117841 25.82117841 0 1 0 0-51.56191701zM318.94446042 236.23207242a25.82117841 25.82117841 0 1 0 0 51.24015779l263.44037172 0a25.82117841 25.82117841 0 1 0 0-51.64235684zM318.94446042 480.52776979a25.82117841 25.82117841 0 1 0 0 51.64235684l386.11107916 0a25.82117841 25.82117841 0 1 0 0-51.64235684z"  horiz-adv-x="1024" />

    
    <glyph glyph-name="mima1" unicode="&#58899;" d="M511.492556-127.004453a515.266531 515.266531 0 0 0-199.308451 40.020977 514.384761 514.384761 0 0 0-272.154025 272.154026 516.290522 516.290522 0 0 0 0 398.645345 514.384761 514.384761 0 0 0 272.154025 272.154025 516.290522 516.290522 0 0 0 398.645345 0 514.384761 514.384761 0 0 0 272.154026-272.154025 516.290522 516.290522 0 0 0 0-398.645345 514.384761 514.384761 0 0 0-272.154026-272.154026 515.266531 515.266531 0 0 0-199.336894-40.020977z m0 968.553168c-251.987093 0-456.244833-204.25774-456.244834-456.244833 0-252.015538 204.25774-456.273278 456.244834-456.273278 252.015538 0 456.273278 204.286184 456.273277 456.244834-0.426663 251.816428-204.456849 455.846615-456.244833 456.273277zM510.696118 343.661585a37.546333 37.546333 0 0 1-37.603221-37.603221c-0.142221-13.653212 7.253269-26.253989 19.199829-32.824597v-61.638563a19.199829 19.199829 0 1 1 38.399659 0v61.638563c11.889672 6.655941 19.228274 19.199829 19.228274 32.824597a40.675194 40.675194 0 0 1-39.224541 37.603221zM681.048382 456.61347H402.209972v83.967254c0.654216 8.95992 9.528804 101.17599 110.135909 101.175989 100.63555 0 107.917263-93.325393 108.486147-104.048853a24.035342 24.035342 0 1 1 48.013796 1.905761c-2.161759 52.195092-37.546333 150.185332-156.556831 150.185332-148.421792 0-158.035929-145.691149-158.092817-147.141803-0.085333-1.42221 0-0.853326 0-1.279989v-84.763691h-12.231002a75.718438 75.718438 0 0 1-75.746883-75.718438v-225.960658a75.718438 75.718438 0 0 1 75.718439-75.405552h339.054763a75.718438 75.718438 0 0 1 75.746883 75.718438V380.866588a75.718438 75.718438 0 0 1-75.718438 75.718438z m27.875308-295.620483c0-19.626492-15.928747-35.526795-35.55524-35.526796h-323.6949c-19.626492 0-35.55524 15.928747-35.55524 35.55524v213.786544c0 19.626492 15.928747 35.55524 35.55524 35.55524h323.6949c19.626492 0 35.55524-15.928747 35.55524-35.55524v-213.814988z"  horiz-adv-x="1024" />

    
    <glyph glyph-name="shoujihaoma" unicode="&#58916;" d="M716.8 680.96c0 21.76-10.24 35.84-32 35.84h-345.6c-21.76 0-44.8-14.08-44.8-35.84V204.8h422.4V680.96zM307.2 84.48c0-20.48 21.76-33.28 42.24-33.28h336.64c20.48 0 43.52 12.8 43.52 33.28V153.6H307.2v-69.12zM476.16 115.2h84.48c10.24 0 19.2-2.56 19.2-12.8s-8.96-12.8-19.2-12.8h-84.48c-10.24 0-19.2 2.56-19.2 12.8s8.96 12.8 19.2 12.8zM512 896C229.12 896 0 666.88 0 384s229.12-512 512-512 512 229.12 512 512S794.88 896 512 896z m243.2-810.24c0-42.24-28.16-72.96-70.4-72.96h-345.6c-42.24 0-83.2 30.72-83.2 72.96V680.96c0 42.24 40.96 74.24 83.2 74.24h345.6c42.24 0 70.4-32 70.4-74.24v-595.2z"  horiz-adv-x="1024" />

    
    <glyph glyph-name="shouye" unicode="&#58627;" d="M562.805 815.3025a72.135 72.135 0 0 1-96.93 0L73.925 443.13a36.1575 36.1575 0 0 1 48.42-53.7075l6.2325 5.9175V6.899999999999977a72.315 72.315 0 0 1 72.315-72.405h210.4425v217.71a50.9175 50.9175 0 0 0 50.94 50.985h99.0225a50.9175 50.9175 0 0 0 50.94-50.985v-217.71h215.4375a72.315 72.315 0 0 1 72.3375 72.405V390.5925c16.065-14.535 38.8575-13.4325 52.2225 1.4625a36.1575 36.1575 0 0 1-2.61 51.075L562.805 815.28z"  horiz-adv-x="1024" />

    
    <glyph glyph-name="guanbi" unicode="&#58646;" d="M7.669378 383.997444c0-282.769964 227.197651-511.997444 507.457172-511.997444 280.269746 0 507.457172 229.22748 507.457172 511.997444S795.396296 896 515.12655 896C234.867029 896 7.669378 666.767407 7.669378 383.997444zM793.678355 662.86625c15.08311-14.883706 15.08311-40.913575 0-55.802393l-509.594371-502.063043c-15.108674-14.853029-41.532238-14.853029-56.6358 0-15.08311 14.878593-15.08311 40.918688 0 55.802394l509.589259 502.063042c15.108674 14.858141 41.537351 14.858141 56.640912 0zM236.58497 655.176421c14.658738 14.408205 40.294912 14.408205 54.953649 0l494.45502-486.836771c14.62806-14.433769 14.62806-39.681361 0-54.110018-14.658738-14.403092-40.294912-14.403092-54.958762 0L236.58497 601.066403c-14.633173 14.438882-14.633173 39.681361 0 54.110018z"  horiz-adv-x="1024" />

    
    <glyph glyph-name="huaban" unicode="&#58937;" d="M524.806071 854.181945a470.181945 470.181945 0 1 1 470.165755-470.181945A470.181945 470.181945 0 0 1 524.806071 854.181945z m219.856443-382.67649L487.278292 208.972901a59.853407 59.853407 0 0 0-85.789343 0l-96.523131 98.465897a62.702798 62.702798 0 0 0 0 87.489265 59.853407 59.853407 0 0 0 85.805534 0l53.587984-54.672695 214.513834 218.739351a59.788648 59.788648 0 0 0 85.789344 0 62.767557 62.767557 0 0 0 0-87.489264z"  horiz-adv-x="1024" />

    
    <glyph glyph-name="quanxian1" unicode="&#58998;" d="M512 896C230.4 896 0 665.6 0 384s230.4-512 512-512 512 230.4 512 512-230.4 512-512 512z m217.6-729.6c-51.2-51.2-140.8-51.2-192 0-51.2 44.8-57.6 115.2-25.6 166.4l-256 256 57.6 51.2 64-64 89.6 51.2 25.6-25.6-70.4-70.4L563.2 384c51.2 25.6 121.6 19.2 160-25.6 57.6-51.2 57.6-134.4 6.4-192zM588.8 307.2c-25.6-25.6-25.6-57.6 0-83.2s57.6-25.6 83.2 0 25.6 57.6 0 83.2-57.6 25.6-83.2 0z"  horiz-adv-x="1024" />

    


  </font>
</defs>
</svg>
